<?xml version="1.0" encoding="UTF-8"?>
<svg width="200px" height="200px" viewBox="0 0 200 200" version="1.1" xmlns="http://www.w3.org/2000/svg" xmlns:xlink="http://www.w3.org/1999/xlink">
    <title>logo</title>
    <defs>
        <linearGradient x1="25.1436627%" y1="93.3468395%" x2="75.4206714%" y2="5.67354049%" id="linearGradient-1">
            <stop stop-color="#A70E13" offset="0%"></stop>
            <stop stop-color="#E11B22" offset="100%"></stop>
        </linearGradient>
        <linearGradient x1="50%" y1="100%" x2="50%" y2="0%" id="linearGradient-2">
            <stop stop-color="#E11B22" offset="0%"></stop>
            <stop stop-color="#F37021" offset="79%"></stop>
            <stop stop-color="#FAA61A" offset="100%"></stop>
        </linearGradient>
    </defs>
    <g id="页面-1" stroke="none" stroke-width="1" fill="none" fill-rule="evenodd">
        <g id="logo">
            <path d="M191.187673,117.472536 C191.352379,116.625478 191.50532,115.778419 191.643556,114.922536 C192.420713,110.182546 192.814146,105.387576 192.820026,100.584301 L192.820026,99.9460658 C192.820026,97.299007 192.684732,94.6872423 192.461203,92.1048893 C187.85532,61.016654 161.061203,37.1607212 128.693556,37.1607212 C111.167954,37.138814 94.3935455,44.2750293 82.2553202,56.916654 C87.5494379,54.7078305 93.5317908,53.4695952 100.170026,53.4695952 C126.911203,53.4695952 145.05532,75.4372423 145.05532,100.584301 L145.05532,101.219595 C145.05532,126.366654 128.502379,147.690183 100.808261,147.690183 C92.2317908,147.690183 84.5464967,145.419595 78.0523791,141.513713 C71.5695298,137.576777 66.20296,132.04516 62.4641438,125.446066 C58.2799741,116.392817 56.1171366,106.537103 56.1259085,96.5637128 C56.1259085,95.9960658 56.1553202,95.4343011 56.167085,94.8695952 C56.2471288,91.8478971 56.5241875,88.8346376 56.9964967,85.849007 L56.9788497,85.849007 C56.9788497,85.849007 36.2523791,186.125478 152.487673,174.416654 C172.57885,161.475478 186.622967,141.146066 191.187673,117.472536 Z" id="路径" fill="url(#linearGradient-1)" fill-rule="nonzero"></path>
            <path d="M56.984732,85.866654 C62.134732,52.849007 90.6582614,27.5754776 125.120026,27.5754776 C125.864144,27.5754776 126.590614,27.6225364 127.340614,27.6460658 C149.167282,28.3291504 169.378046,39.318385 181.817085,57.266654 C166.614144,30.0519481 136.911203,11.7695952 100.808261,11.7695952 C70.8729673,11.7695952 45.2788497,24.3872423 28.6288497,44.166654 C15.7112026,59.5107717 8.17590848,79.166654 8.17590848,100.584301 L8.17590848,101.219595 C8.17590848,150.240183 47.3288497,189.399007 100.170026,189.399007 C119.95532,189.399007 137.817085,183.869595 152.490614,174.419595 C36.2553202,186.125478 56.9700261,85.8695952 56.9700261,85.8695952 L56.984732,85.866654 Z" id="路径" fill="url(#linearGradient-2)" fill-rule="nonzero"></path>
            <rect id="矩形" x="0" y="0" width="200" height="200"></rect>
        </g>
    </g>
</svg>